<?xml version="1.0" encoding="utf-8"?>
<!-- Generator: Adobe Illustrator 16.0.0, SVG Export Plug-In . SVG Version: 6.00 Build 0)  -->
<!DOCTYPE svg PUBLIC "-//W3C//DTD SVG 1.1//EN" "http://www.w3.org/Graphics/SVG/1.1/DTD/svg11.dtd">
<svg version="1.1" id="Layer_1" xmlns="http://www.w3.org/2000/svg" xmlns:xlink="http://www.w3.org/1999/xlink" x="0px" y="0px"
	 width="352.849px" height="40.959px" viewBox="0 0 352.849 40.959" enable-background="new 0 0 352.849 40.959"
	 xml:space="preserve">
<g>
	<path fill="#3AC0C4" d="M75.811,10.635c0.904,0,1.994,0.045,3.27,0.135c1.277,0.088,2.602,0.244,3.977,0.465
		c1.371,0.223,2.732,0.531,4.08,0.93c1.346,0.398,2.555,0.908,3.627,1.531c1.074,0.619,1.941,1.367,2.607,2.244
		c0.664,0.877,0.994,1.908,0.994,3.098v8.984H63.902v6.773c2.15,0.186,4.217,0.365,6.201,0.539c1.982,0.172,3.887,0.27,5.711,0.289
		c2.781,0.006,5.289-0.154,7.529-0.479c2.238-0.322,4.191-0.605,5.859-0.848c1.908-0.219,3.631-0.465,5.162-0.746v5.451
		c-3.41,0.541-6.67,1-9.781,1.375c-3.115,0.377-6.037,0.564-8.773,0.564c-2.764,0-5.266-0.117-7.504-0.354
		c-2.236-0.234-4.168-0.438-5.789-0.607c-1.887-0.15-3.588-0.33-5.102-0.533V19.035c0-1.188,0.291-2.219,0.877-3.096
		c0.586-0.879,1.365-1.627,2.34-2.248c0.975-0.619,2.096-1.129,3.361-1.527c1.27-0.398,2.586-0.707,3.949-0.93
		c1.363-0.221,2.725-0.377,4.08-0.465C73.381,10.68,74.641,10.635,75.811,10.635 M63.902,23.77h23.871v-3.086
		c0-0.725-0.178-1.352-0.531-1.873c-0.355-0.523-0.83-0.963-1.422-1.316c-0.594-0.355-1.285-0.641-2.074-0.863
		c-0.787-0.223-1.607-0.391-2.459-0.506c-0.85-0.115-1.707-0.189-2.564-0.225c-0.859-0.035-1.67-0.055-2.434-0.055
		c-0.795,0-1.65,0.02-2.564,0.055c-0.912,0.035-1.83,0.115-2.752,0.238c-0.92,0.123-1.807,0.297-2.658,0.518
		c-0.85,0.223-1.604,0.516-2.258,0.879c-0.656,0.363-1.18,0.807-1.57,1.328c-0.389,0.523-0.584,1.148-0.584,1.877V23.77z"/>
	<path fill="#3AC0C4" d="M238.689,10.615c0.887,0,1.957,0.045,3.219,0.135s2.574,0.242,3.939,0.465
		c1.367,0.223,2.719,0.523,4.061,0.904c1.34,0.383,2.543,0.879,3.619,1.492c1.072,0.611,1.938,1.344,2.596,2.195
		c0.654,0.852,0.984,1.854,0.984,3.006v20.602c-1.492,0.301-3.178,0.561-5.059,0.771c-1.615,0.195-3.539,0.373-5.775,0.533
		c-2.234,0.16-4.729,0.24-7.479,0.24c-2.732,0-5.639-0.117-8.719-0.348c-3.076-0.23-6.293-0.629-9.645-1.197v-9.58
		c0-1.029,0.242-1.932,0.73-2.703c0.486-0.771,1.156-1.434,2.01-1.982c0.852-0.549,1.854-1.002,3.006-1.357
		c1.156-0.354,2.396-0.639,3.729-0.852c1.328-0.213,2.715-0.359,4.152-0.439c1.436-0.08,2.873-0.119,4.312-0.119
		c2.18,0,4.039,0.137,5.574,0.412s2.809,0.572,3.818,0.893c1.172,0.389,2.139,0.824,2.902,1.303v-4.312
		c0-0.727-0.178-1.35-0.533-1.875c-0.354-0.521-0.834-0.967-1.438-1.33c-0.604-0.365-1.295-0.658-2.076-0.879
		c-0.781-0.223-1.596-0.395-2.447-0.52c-0.854-0.125-1.717-0.203-2.598-0.238c-0.875-0.037-1.697-0.055-2.459-0.055
		c-0.799,0-1.65,0.021-2.557,0.066c-0.904,0.045-1.807,0.129-2.699,0.254c-0.898,0.123-1.758,0.297-2.584,0.518
		c-0.824,0.223-1.557,0.521-2.195,0.895c-0.637,0.371-1.148,0.818-1.529,1.342c-0.383,0.523-0.572,1.148-0.572,1.877l-6.602-1.703
		c0-1.189,0.293-2.223,0.879-3.102c0.584-0.879,1.361-1.627,2.328-2.248c0.969-0.619,2.08-1.133,3.342-1.533
		c1.258-0.396,2.566-0.707,3.924-0.93c1.359-0.223,2.711-0.375,4.059-0.465C236.257,10.66,237.517,10.615,238.689,10.615
		 M250.666,30.1c-0.443-0.391-0.994-0.773-1.652-1.145c-0.654-0.373-1.463-0.705-2.42-0.998c-0.959-0.293-2.1-0.533-3.42-0.719
		c-1.322-0.188-2.871-0.281-4.645-0.281c-1.58,0-3.074,0.033-4.486,0.094c-1.41,0.062-2.648,0.24-3.711,0.531
		c-1.064,0.295-1.908,0.76-2.527,1.4c-0.623,0.639-0.934,1.525-0.934,2.66v3.406c1.561,0.25,3.281,0.453,5.164,0.615
		c1.879,0.158,3.973,0.238,6.281,0.238c1.844,0,3.811-0.066,5.896-0.201c2.084-0.135,4.234-0.402,6.453-0.812V30.1z"/>
	<path fill="#3AC0C4" d="M14.377,39.182c7.817,2.281,17.012,1.713,17.012,1.713c2.748,0,5.332-0.24,7.758-0.723
		c2.426-0.48,4.549-1.15,6.368-2.006c1.819-0.857,3.254-1.887,4.308-3.092c1.053-1.203,1.576-2.525,1.576-3.971v-5.465v-4.307V9.867
		c0-1.443-0.523-2.77-1.576-3.973c-1.054-1.205-2.488-2.234-4.308-3.09c-1.819-0.857-3.942-1.525-6.368-2.006
		c-2.426-0.482-5.01-0.725-7.758-0.725c0,0-9.527-0.422-17.012,1.715V39.182z M31.519,6.312c1.994,0,3.789,0.16,5.38,0.48
		c1.596,0.318,2.939,0.744,4.033,1.277c1.096,0.533,1.938,1.152,2.523,1.852c0.588,0.703,0.884,1.434,0.884,2.197v9.432v4.41v2.889
		c0,0.766-0.296,1.496-0.884,2.197c-0.586,0.703-1.428,1.318-2.523,1.852c-1.094,0.535-2.438,0.959-4.033,1.279
		c-1.591,0.318-3.386,0.48-5.38,0.48c-1.62,0-3.026-0.074-4.214-0.223c-1.189-0.146-2.215-0.273-3.076-0.379
		c-0.859-0.107-1.576-0.244-2.145-0.412c-0.57-0.17-1.034-0.316-1.395-0.439v-0.299V21.322V7.537
		C26.015,6.213,31.519,6.312,31.519,6.312"/>
	<path fill="#3AC0C4" d="M99.016,12.16l-0.004,4.58c0.059,2.195,0.229,4.186,0.512,5.975c0.287,1.789,0.697,3.426,1.236,4.912
		c0.539,1.484,1.229,2.838,2.072,4.062s1.861,2.367,3.059,3.428c1.195,1.064,2.586,2.064,4.174,3
		c0.898,0.531,1.885,1.057,2.924,1.58c0,0,0,0.002-0.002,0.002c0.793,0.398,1.605,0.797,2.477,1.191l0.004-0.004l0.006,0.004
		c0.873-0.395,1.686-0.793,2.477-1.191l-0.002-0.002c1.039-0.523,2.027-1.049,2.926-1.58c1.588-0.936,2.979-1.936,4.174-3
		c1.195-1.061,2.215-2.203,3.057-3.428c0.844-1.225,1.533-2.578,2.072-4.062c0.541-1.486,0.951-3.123,1.236-4.912
		c0.283-1.789,0.455-3.779,0.514-5.975l-0.004-4.58c-3.211-0.541-6.855-0.951-6.855-0.951c0.07,0.609,0.113,1.234,0.127,1.875
		c0.021,0.852,0.029,1.701,0.029,2.545c0,2.262-0.162,4.318-0.484,6.174c-0.324,1.859-0.867,3.545-1.631,5.062
		c-0.766,1.52-1.77,2.891-3.012,4.113c-1.246,1.225-2.787,2.334-4.629,3.328c-1.838-0.994-3.381-2.104-4.625-3.328
		c-1.244-1.223-2.25-2.594-3.01-4.113c-0.768-1.518-1.311-3.203-1.633-5.062c-0.324-1.855-0.486-3.912-0.486-6.174
		c0-0.844,0.01-1.693,0.029-2.545c0.016-0.648,0.059-1.279,0.131-1.893C105.873,11.191,101.641,11.619,99.016,12.16"/>
	<path fill="#3AC0C4" d="M319.941,12.16l-0.004,4.58c0.059,2.195,0.229,4.186,0.514,5.975c0.283,1.789,0.695,3.426,1.234,4.912
		c0.539,1.484,1.23,2.838,2.072,4.062c0.844,1.225,1.863,2.367,3.057,3.428c1.197,1.064,2.588,2.064,4.176,3
		c0.898,0.531,1.887,1.057,2.924,1.58l-0.002,0.002c0.791,0.398,1.605,0.797,2.477,1.191c0,0,0.004-0.004,0.006-0.004l0.002,0.004
		c0.875-0.395,1.688-0.793,2.479-1.191c-0.002,0-0.002-0.002-0.002-0.002c1.039-0.523,2.027-1.049,2.924-1.58
		c1.59-0.936,2.979-1.936,4.176-3c1.195-1.061,2.215-2.203,3.059-3.428c0.842-1.225,1.533-2.578,2.07-4.062
		c0.539-1.486,0.951-3.123,1.236-4.912c0.283-1.789,0.453-3.779,0.512-5.975l-0.004-4.58c-3.209-0.541-6.854-0.951-6.854-0.951
		c0.07,0.609,0.113,1.234,0.127,1.875c0.02,0.852,0.029,1.701,0.029,2.545c0,2.262-0.16,4.318-0.484,6.174
		c-0.324,1.859-0.867,3.545-1.633,5.062c-0.762,1.52-1.768,2.891-3.012,4.113c-1.244,1.225-2.787,2.334-4.625,3.328
		c-1.84-0.994-3.383-2.104-4.627-3.328c-1.244-1.223-2.248-2.594-3.012-4.113c-0.766-1.518-1.309-3.203-1.631-5.062
		c-0.324-1.855-0.486-3.912-0.486-6.174c0-0.844,0.008-1.693,0.029-2.545c0.014-0.648,0.057-1.279,0.131-1.893
		C326.798,11.191,322.564,11.619,319.941,12.16"/>
	<path fill="#3AC0C4" d="M155.936,0c2.605,0,5.074,0.23,7.404,0.688c2.33,0.459,4.363,1.102,6.098,1.93s3.109,1.816,4.129,2.963
		c1.02,1.148,1.527,2.412,1.527,3.795v4.555h-6.836v-2.537c0-0.74-0.285-1.453-0.854-2.137c-0.57-0.682-1.385-1.275-2.445-1.785
		c-1.062-0.508-2.354-0.914-3.871-1.217c-1.52-0.303-3.234-0.453-5.152-0.453c-1.846,0-3.531,0.143-5.049,0.428
		c-1.52,0.285-2.822,0.676-3.91,1.176c-1.086,0.502-1.928,1.094-2.523,1.775c-0.594,0.682-0.893,1.42-0.893,2.213V29.67
		c0,0.76,0.299,1.477,0.893,2.15c0.596,0.672,1.438,1.256,2.523,1.746c1.088,0.492,2.391,0.881,3.91,1.166
		c1.518,0.285,3.203,0.426,5.049,0.426c1.918,0,3.633-0.15,5.152-0.451c1.518-0.303,2.809-0.703,3.871-1.205
		c1.061-0.5,1.875-1.082,2.445-1.748c0.568-0.664,0.854-1.359,0.854-2.084v-2.588h6.836v4.557c0,0.914-0.232,1.781-0.699,2.602
		c-0.465,0.82-1.117,1.574-1.953,2.264c-0.84,0.693-1.84,1.311-3.004,1.852c-1.164,0.543-2.461,1.01-3.883,1.4
		c-1.424,0.387-2.949,0.686-4.57,0.893c-1.623,0.205-3.305,0.311-5.049,0.311s-3.426-0.105-5.049-0.311
		c-1.621-0.207-3.145-0.506-4.57-0.893c-1.422-0.391-2.719-0.857-3.883-1.4c-1.164-0.541-2.166-1.158-3.002-1.852
		c-0.838-0.689-1.49-1.443-1.957-2.264c-0.465-0.82-0.697-1.688-0.697-2.602V9.375c0-0.916,0.232-1.787,0.697-2.617
		c0.467-0.83,1.119-1.588,1.957-2.277c0.836-0.689,1.838-1.311,3.002-1.863s2.461-1.021,3.883-1.41
		c1.426-0.389,2.949-0.688,4.57-0.895C152.51,0.105,154.191,0,155.936,0"/>
	<path fill="#3AC0C4" d="M199.185,10.615c2.656,0,4.936,0.221,6.834,0.66c1.898,0.441,3.455,1.096,4.674,1.969
		c1.217,0.871,2.104,1.955,2.666,3.25c0.561,1.293,0.842,2.805,0.842,4.527v19.109h-6.783V22.629c0-0.965-0.129-1.799-0.389-2.498
		c-0.258-0.699-0.607-1.295-1.049-1.785c-0.439-0.494-0.953-0.895-1.541-1.205c-0.586-0.311-1.195-0.549-1.824-0.713
		c-0.631-0.164-1.271-0.275-1.93-0.336C200.031,16.033,199.41,16,198.822,16c-1.104,0-2.158,0.078-3.158,0.232
		c-1,0.156-1.951,0.369-2.848,0.637c-0.898,0.268-1.746,0.582-2.539,0.943c-0.791,0.363-1.535,0.744-2.223,1.141v21.178h-6.785
		V0.727h6.785v13.307c0.793-0.482,1.604-0.932,2.432-1.346s1.695-0.777,2.6-1.088c0.908-0.312,1.865-0.551,2.875-0.725
		S198.044,10.615,199.185,10.615"/>
	<polygon fill="#3AC0C4" points="272.982,10.602 279.556,10.602 279.556,14.604 272.982,14.604 272.982,40.131 266.82,40.131 
		266.82,14.604 261.953,14.604 261.953,10.602 266.82,10.602 266.82,0.727 272.982,0.727 	"/>
	<path fill="#3AC0C4" d="M288.031,33.277c0.492,0,0.977,0.041,1.461,0.121c0.48,0.084,0.912,0.205,1.295,0.369
		c0.381,0.162,0.689,0.375,0.928,0.633c0.236,0.258,0.357,0.564,0.357,0.916v2.979c0,0.324-0.121,0.604-0.357,0.836
		c-0.238,0.23-0.547,0.422-0.928,0.57c-0.383,0.148-0.814,0.258-1.295,0.326c-0.484,0.07-0.969,0.102-1.461,0.102
		c-0.486,0-0.969-0.031-1.445-0.102c-0.479-0.068-0.904-0.178-1.285-0.326s-0.688-0.34-0.92-0.57
		c-0.23-0.232-0.346-0.512-0.346-0.836v-2.979c0-0.352,0.115-0.658,0.346-0.916c0.232-0.258,0.539-0.471,0.92-0.633
		c0.381-0.164,0.807-0.285,1.285-0.369C287.062,33.318,287.544,33.277,288.031,33.277"/>
	<polygon fill="#3AC0C4" points="309.277,10.621 315.851,10.621 315.851,14.604 309.277,14.604 309.277,40.131 303.115,40.131 
		303.115,14.604 298.248,14.604 298.248,10.58 303.115,10.58 303.115,0.727 309.277,0.727 	"/>
	<path fill="#FFFFFF" d="M11.127,31.725c-0.002-0.01-0.003-0.016-0.006-0.025v-6.734l-4.387-4.387l4.426-4.465v-5.547V9.342V3.043
		C10.303,3.344,9.1,4.018,8.428,4.549c-0.295,0.232-0.58,0.502-0.854,0.809C7.296,5.666,7.053,6.016,6.841,6.406
		C6.628,6.799,6.457,7.234,6.322,7.717C6.188,8.195,6.119,8.725,6.119,9.303v5.156L0,20.578l6.08,6.043v5.117
		c0,0.576,0.068,1.105,0.202,1.588c0.136,0.48,0.308,0.916,0.519,1.309c0.214,0.391,0.457,0.74,0.732,1.047
		c0.277,0.309,0.562,0.578,0.855,0.809c0.681,0.539,1.912,1.203,2.771,1.5l-0.033-1V31.725z"/>
</g>
</svg>
